<?xml version="1.0" encoding="UTF-8"?>
<svg width="40px" height="40px" viewBox="0 0 40 40" version="1.1" xmlns="http://www.w3.org/2000/svg" xmlns:xlink="http://www.w3.org/1999/xlink">
    <!-- Generator: Sketch 47.1 (45422) - http://www.bohemiancoding.com/sketch -->
    <title>Rectangle 3 Copy 6 + Imported Layers Copy 2</title>
    <desc>Created with Sketch.</desc>
    <defs></defs>
    <g id="Page-1" stroke="none" stroke-width="1" fill="none" fill-rule="evenodd">
        <g id="02_D_Navigatie" transform="translate(-1350.000000, -823.000000)">
            <g id="Group" transform="translate(1140.000000, 0.000000)">
                <g id="De-laatste-artikelen-+-Rectangle-3-Copy-7-+-INSCHRIJVEN-+-Volg-ons-+-Group" transform="translate(50.000000, 794.000000)">
                    <g id="Volg-ons-+-Group">
                        <g id="Group" transform="translate(0.000000, 29.000000)">
                            <g id="Rectangle-3-Copy-6-+-Imported-Layers-Copy-2" transform="translate(160.000000, 0.000000)">
                                <rect id="Rectangle-3-Copy-6" fill="#CA346C" x="0" y="0" width="40" height="40"></rect>
                                <path d="M20.4997111,14 C16.9098333,14.0002857 14,16.8782857 14,20.4288571 C14,23.9788571 16.9098333,26.8571429 20.4997111,26.8571429 C24.0897333,26.8571429 26.9997111,23.9788571 27,20.4288571 C26.9997111,16.8782857 24.0897333,14.0002857 20.4997111,14 L20.4997111,14 Z M24.4826222,17.3331429 C25.1165889,18.1294286 25.5138111,19.1157143 25.5640778,20.1928571 C24.8300111,20.0388571 24.1368222,19.9638571 23.4904333,19.9638571 L23.4904333,19.9637143 L23.4856667,19.9637143 C22.9653778,19.9637143 22.4768667,20.0104286 22.0166667,20.0911429 C21.9047222,19.82 21.7914778,19.5595714 21.6772222,19.3101429 C22.7022,18.8654286 23.6860111,18.2322857 24.4826222,17.3331429 L24.4826222,17.3331429 Z M20.4997111,15.4132857 C21.6961444,15.4132857 22.7933444,15.8268571 23.6620333,16.5154286 C22.9973,17.3025714 22.1196556,17.8727143 21.1716667,18.2752857 C20.5056333,17.0014286 19.8618444,16.0901429 19.4220111,15.533 C19.7704111,15.4567143 20.1299333,15.4132857 20.4997111,15.4132857 L20.4997111,15.4132857 Z M18.2599556,15.9361429 C18.6118222,16.3472857 19.3168556,17.2517143 20.0695556,18.6638571 C18.5387333,19.1147143 16.9972222,19.2204286 16.0645444,19.2201429 C16.0379667,19.2201429 16.0115333,19.2201429 15.9858222,19.2198571 L15.9846667,19.2198571 C15.8278,19.2198571 15.6927444,19.2174286 15.5799333,19.214 C15.9437889,17.774 16.9413222,16.5814286 18.2599556,15.9361429 L18.2599556,15.9361429 Z M15.4287,20.4288571 C15.4287,20.4054286 15.4294222,20.3812857 15.4308667,20.3565714 C15.5756,20.3617143 15.7612111,20.3664286 15.9846667,20.3664286 L15.9861111,20.3664286 C17.0054556,20.3598571 18.7853,20.2755714 20.5888333,19.7124286 C20.6873444,19.925 20.7844111,20.1464286 20.8809,20.3764286 C19.6765222,20.7747143 18.7276667,21.4094286 18.0261,22.0417143 C17.3506778,22.6502857 16.8942333,23.2527143 16.6275889,23.6552857 C15.8813889,22.7814286 15.4289889,21.6585714 15.4287,20.4288571 L15.4287,20.4288571 Z M20.4997111,25.4445714 C19.3713111,25.4445714 18.3310222,25.0754286 17.4873222,24.4558571 C17.6667222,24.1637143 18.0512333,23.603 18.6633889,23.0234286 C19.2934556,22.4262857 20.1631556,21.8115714 21.2986333,21.4457143 C21.6845889,22.5157143 22.0338556,23.739 22.2999222,25.116 C21.7396222,25.3271429 21.1339667,25.4445714 20.4997111,25.4445714 L20.4997111,25.4445714 Z M23.3699667,24.554 C23.1127111,23.3085714 22.7891556,22.1857143 22.4339667,21.1837143 C22.7634444,21.137 23.1091,21.1105714 23.4741111,21.1105714 L23.4887,21.1105714 C24.0936333,21.1105714 24.7583667,21.185 25.4791444,21.3468571 C25.2296889,22.6731429 24.4530111,23.8151429 23.3699667,24.554 L23.3699667,24.554 Z" id="Imported-Layers-Copy-2" fill="#FFFFFF"></path>
                            </g>
                        </g>
                    </g>
                </g>
            </g>
        </g>
    </g>
</svg>