<?xml version="1.0" encoding="UTF-8"?>
<svg width="40px" height="40px" viewBox="0 0 40 40" version="1.1" xmlns="http://www.w3.org/2000/svg" xmlns:xlink="http://www.w3.org/1999/xlink">
    <!-- Generator: Sketch 47.1 (45422) - http://www.bohemiancoding.com/sketch -->
    <title>Rectangle 3 Copy 4 + Imported Layers</title>
    <desc>Created with Sketch.</desc>
    <defs></defs>
    <g id="Page-1" stroke="none" stroke-width="1" fill="none" fill-rule="evenodd">
        <g id="02_D_Navigatie" transform="translate(-1243.000000, -823.000000)">
            <g id="Group" transform="translate(1140.000000, 0.000000)">
                <g id="De-laatste-artikelen-+-Rectangle-3-Copy-7-+-INSCHRIJVEN-+-Volg-ons-+-Group" transform="translate(50.000000, 794.000000)">
                    <g id="Volg-ons-+-Group">
                        <g id="Group" transform="translate(0.000000, 29.000000)">
                            <g id="Rectangle-3-Copy-4-+-Imported-Layers" transform="translate(53.000000, 0.000000)">
                                <rect id="Rectangle-3-Copy-4" fill="#37559D" x="0" y="0" width="40" height="40"></rect>
                                <path d="M18.513,16.7114889 L18.513,18.6389778 L17,18.6389778 L17,20.9961111 L18.513,20.9961111 L18.513,28 L21.621,28 L21.621,20.9961111 L23.7066667,20.9961111 C23.7066667,20.9961111 23.902,19.866 23.9965,18.6301111 L21.6328333,18.6301111 L21.6328333,17.0185556 C21.6328333,16.7779111 21.9716667,16.4538889 22.3066667,16.4538889 L24,16.4538889 L24,14 L21.6976667,14 C18.4361667,14 18.513,16.3593111 18.513,16.7114889" id="Imported-Layers" fill="#FFFFFF"></path>
                            </g>
                        </g>
                    </g>
                </g>
            </g>
        </g>
    </g>
</svg>