<?xml version="1.0" encoding="UTF-8"?>
<svg width="40px" height="40px" viewBox="0 0 40 40" version="1.1" xmlns="http://www.w3.org/2000/svg" xmlns:xlink="http://www.w3.org/1999/xlink">
    <!-- Generator: Sketch 47.1 (45422) - http://www.bohemiancoding.com/sketch -->
    <title>Rectangle 3 Copy 5 + Imported Layers Copy</title>
    <desc>Created with Sketch.</desc>
    <defs></defs>
    <g id="Page-1" stroke="none" stroke-width="1" fill="none" fill-rule="evenodd">
        <g id="02_D_Navigatie" transform="translate(-1296.000000, -823.000000)">
            <g id="Group" transform="translate(1140.000000, 0.000000)">
                <g id="De-laatste-artikelen-+-Rectangle-3-Copy-7-+-INSCHRIJVEN-+-Volg-ons-+-Group" transform="translate(50.000000, 794.000000)">
                    <g id="Volg-ons-+-Group">
                        <g id="Group" transform="translate(0.000000, 29.000000)">
                            <g id="Rectangle-3-Copy-5-+-Imported-Layers-Copy" transform="translate(106.000000, 0.000000)">
                                <rect id="Rectangle-3-Copy-5" fill="#0078BA" x="0" y="0" width="40" height="40"></rect>
                                <path d="M26.8461538,21.9703605 L26.8461538,27 L23.8786154,27 L23.8786154,22.3071512 C23.8786154,21.1282326 23.4492308,20.3237442 22.3750769,20.3237442 C21.5550769,20.3237442 21.0670769,20.8661163 20.8523077,21.3905 C20.7741538,21.5779419 20.754,21.839 20.754,22.1014186 L20.754,27 L17.7855385,27 C17.7855385,27 17.8255385,19.0518605 17.7855385,18.2283256 L20.754,18.2283256 L20.754,19.4716395 C20.748,19.4810116 20.7401538,19.4909884 20.7344615,19.5000581 L20.754,19.5000581 L20.754,19.4716395 C21.1481538,18.8748488 21.8526154,18.0222907 23.4289231,18.0222907 C25.3823077,18.0222907 26.8461538,19.2760349 26.8461538,21.9703605 L26.8461538,21.9703605 Z M14.68,14 C13.6644615,14 13,14.6545349 13,15.5152558 C13,16.3572326 13.6452308,17.0315698 14.6407692,17.0315698 L14.6604615,17.0315698 C15.6956923,17.0315698 16.3395385,16.3572326 16.3395385,15.5152558 C16.3201538,14.6545349 15.6956923,14 14.68,14 L14.68,14 Z M13.1764615,27 L16.144,27 L16.144,18.2283256 L13.1764615,18.2283256 L13.1764615,27 Z" id="Imported-Layers-Copy" fill="#FFFFFF"></path>
                            </g>
                        </g>
                    </g>
                </g>
            </g>
        </g>
    </g>
</svg>