<?xml version="1.0" encoding="UTF-8"?>
<svg width="40px" height="40px" viewBox="0 0 40 40" version="1.1" xmlns="http://www.w3.org/2000/svg" xmlns:xlink="http://www.w3.org/1999/xlink">
    <!-- Generator: Sketch 47.1 (45422) - http://www.bohemiancoding.com/sketch -->
    <title>Rectangle 3 Copy 3 + Imported Layers</title>
    <desc>Created with Sketch.</desc>
    <defs></defs>
    <g id="Page-1" stroke="none" stroke-width="1" fill="none" fill-rule="evenodd">
        <g id="02_D_Navigatie" transform="translate(-1190.000000, -823.000000)">
            <g id="Group" transform="translate(1140.000000, 0.000000)">
                <g id="De-laatste-artikelen-+-Rectangle-3-Copy-7-+-INSCHRIJVEN-+-Volg-ons-+-Group" transform="translate(50.000000, 794.000000)">
                    <g id="Volg-ons-+-Group">
                        <g id="Group" transform="translate(0.000000, 29.000000)">
                            <g id="Rectangle-3-Copy-3-+-Imported-Layers">
                                <rect id="Rectangle-3-Copy-3" fill="#22A6E1" x="0" y="0" width="40" height="40"></rect>
                                <path d="M26.1546703,19.8127619 C26.9879121,19.740127 27.5528022,19.3388889 27.7705495,18.7943016 C27.4698901,18.9900317 26.5367582,19.2030476 26.0216484,18.9999841 C25.9962637,18.8718254 25.9682418,18.750127 25.9405495,18.640127 C25.5477473,17.1130476 24.2036813,15.8827937 22.7951648,16.0312063 C22.9092308,15.9824921 23.0247802,15.9370952 23.14,15.8964127 C23.2947802,15.8375714 24.2046703,15.6806032 24.0614286,15.3406508 C23.9404396,15.0415556 22.8292857,15.5667619 22.6201099,15.6355556 C22.8963736,15.5255556 23.3531319,15.3362857 23.4020879,15 C22.9786264,15.0614603 22.5634066,15.2734286 22.2424725,15.5816032 C22.3583516,15.4494286 22.4462088,15.2884444 22.4648352,15.1150635 C21.3358791,15.8787778 20.6765385,17.4187778 20.142967,18.9125079 C19.7237912,18.4824603 19.3525824,18.1437302 19.0194505,17.9556825 C18.0848352,17.4247143 16.9674176,16.870873 15.2130769,16.1810159 C15.1593407,16.7957937 15.5002198,17.6132857 16.4821429,18.1568254 C16.2693407,18.126619 15.8804945,18.1940159 15.5691209,18.2729365 C15.696044,18.9772857 16.1097802,19.5576667 17.2306593,19.8380794 C16.7185165,19.873873 16.453956,19.9973175 16.213956,20.2634127 C16.447033,20.753 17.0163736,21.3297143 18.04,21.2111587 C16.901978,21.7309524 17.5761538,22.6937143 18.5023626,22.5498413 C16.9222527,24.2789365 14.4307692,24.152 13,22.7059365 C16.7354945,28.0975079 24.8552747,25.8945397 26.0651648,20.7011429 C26.9717582,20.7093492 27.5048352,20.3685238 27.8351648,19.9929524 C27.312967,20.0868889 26.5562088,19.9898095 26.1546703,19.8127619" id="Imported-Layers" fill="#FFFFFF"></path>
                            </g>
                        </g>
                    </g>
                </g>
            </g>
        </g>
    </g>
</svg>